<?xml version="1.0" encoding="UTF-8"?>
<svg width="175px" height="29px" viewBox="0 0 175 29" version="1.1" xmlns="http://www.w3.org/2000/svg" xmlns:xlink="http://www.w3.org/1999/xlink">
    <!-- Generator: sketchtool 52 (66869) - http://www.bohemiancoding.com/sketch -->
    <title>B8E9072C-9F82-4990-9B37-07D22042DF1E</title>
    <desc>Created with sketchtool.</desc>
    <defs>
        <polygon id="path-1" points="0 0.111295082 17.969016 0.111295082 17.969016 14.8449836 0 14.8449836"></polygon>
    </defs>
    <g id="Page-2" stroke="none" stroke-width="1" fill="none" fill-rule="evenodd">
        <g id="Artboard" transform="translate(-145.000000, -37.000000)">
            <g id="Group" transform="translate(145.000000, 37.000000)">
                <g id="Group-3" transform="translate(0.000000, 7.000000)">
                    <mask id="mask-2" fill="white">
                        <use xlink:href="#path-1"></use>
                    </mask>
                    <g id="Clip-2"></g>
                    <path d="M14.370696,0.111295082 L14.370696,5.17539344 C14.370696,6.19465574 13.566456,7.01867213 12.576216,7.01867213 L5.392776,7.01867213 C4.395576,7.01867213 3.593496,6.19465574 3.593496,5.17539344 L3.593496,0.111295082 L-2.4e-05,0.111295082 L-2.4e-05,7.47408197 L-2.4e-05,14.8449836 L3.593496,14.8449836 L3.593496,9.77867213 C3.593496,8.78744262 4.375416,7.93662295 5.371416,7.93662295 L12.576216,7.93662295 C13.566456,7.93662295 14.370696,8.78744262 14.370696,9.77867213 L14.370696,14.8449836 L17.969016,14.8449836 L17.969016,7.47408197 L17.969016,0.111295082 L14.370696,0.111295082 Z" id="Fill-1" fill="#FFFFFF" mask="url(#mask-2)"></path>
                </g>
                <path d="M90.3775774,17.0181342 L80.8038299,17.0181342 L86.0449343,8.33812013 L90.7721666,16.1466261 C91.0594745,16.625862 90.8890002,17.0181342 90.3775774,17.0181342 Z M90.5321309,7 L85.4656647,7 L77,21 C78.006925,21 79.3067914,20.2154558 79.8916945,19.2488019 L80.2980405,18.5687545 C80.6274772,18.1834956 81.1685371,17.890811 81.6037853,17.8922137 L81.6025607,17.890811 L91.0256736,17.890811 C91.4374081,17.9270459 91.9164997,18.1937816 92.2270764,18.5477149 L92.6500779,19.2488019 C93.2313071,20.2154558 94.5250501,21 95.5417724,21 L99,21 L90.5321309,7 Z" id="Fill-4" fill="#FFFFFF"></path>
                <path d="M143.388653,17.0181342 L133.803915,17.0181342 L139.053464,8.33812013 L143.770269,16.1466261 C144.063217,16.625862 143.888085,17.0181342 143.388653,17.0181342 Z M143.533412,7 L138.466098,7 L130,21 C131.011846,21 132.309292,20.2154558 132.894208,19.2488019 L133.303748,18.5687545 C133.630007,18.1834956 134.169365,17.890811 134.602663,17.8922137 L134.602663,17.890811 L144.029415,17.890811 C144.437975,17.9270459 144.917077,18.1937816 145.226926,18.5477149 L145.651406,19.2488019 C146.238037,20.2154558 147.531564,21 148.540471,21 L152,21 L143.533412,7 Z" id="Fill-6" fill="#FFFFFF"></path>
                <path d="M115.77991,11.8118429 C115.77991,12.7803331 114.973231,13.5633032 113.98021,13.5633032 L108.402945,13.5633032 C107.409925,13.5633032 106.603246,12.7803331 106.603246,11.8118429 L106.603246,7.8745619 L114.881383,7.8745619 C115.37621,7.8745619 115.77991,8.2703695 115.77991,8.75169398 L115.77991,11.8118429 Z M116.498107,18.3702393 C116.498107,19.3401315 115.69287,20.1219333 114.698407,20.1219333 L106.590743,20.1219333 L106.590743,16.1860543 C106.590743,15.2439668 107.401509,14.4355286 108.402945,14.4355286 L114.698407,14.4355286 C115.69287,14.4355286 116.498107,15.2222371 116.498107,16.1860543 L116.498107,18.3702393 Z M120.714717,15.2640609 C120.466101,14.4091258 119.647641,13.7478888 118.635625,13.5934444 L118.635625,13.5193765 C119.293231,13.3509129 119.614219,12.7279949 119.614219,12.7279949 C120.266776,11.1389232 120.253792,9.3640976 119.58753,7.78554024 C119.58753,7.78554024 119.256203,7 118.300691,7 L103,7 L103,13.9983644 L103,19.2485397 C103,20.2114223 103.8074,21 104.800661,21 L118.181673,21 C119.387003,21 120.43292,20.2717047 120.714717,19.2983077 C121.095094,17.9760673 121.095094,16.5806936 120.714717,15.2640609 Z" id="Fill-8" fill="#FFFFFF"></path>
                <path d="M128,21.9973287 C128,23.1048484 127.105196,24 125.997459,24 C124.892664,24 124,23.1048484 124,21.9973287 C124,20.8951516 124.892664,20 125.997459,20 C127.105196,20 128,20.8951516 128,21.9973287" id="Fill-10" fill="#FFFFFF"></path>
                <path d="M162.459435,20.1169655 C162.144921,20.077465 161.901209,19.8222311 161.901209,19.5055261 C161.901209,19.3091923 162.001632,19.1273498 162.154554,19.0158603 L173.623702,10.0169956 L173.619849,10.0169956 C174.223831,9.50278807 174.520523,9.12110588 174.649604,8.83338342 C174.741839,8.66743464 174.795301,8.47367191 174.795301,8.26728772 C174.795301,7.56866673 174.210826,7 173.495826,7 L157.27839,7 C157.27839,7.48966577 157.681767,7.87485392 158.178101,7.87485392 L169.763085,7.89121507 L169.763085,7.89472103 C169.875308,7.91318575 169.96393,8.00247087 169.96393,8.11863501 C169.96393,8.19179271 169.928289,8.25092658 169.869528,8.29510167 L157.549315,18.042372 L157.55654,18.0470466 C157.212164,18.3579084 157,18.7977896 157,19.2883903 C157,20.2097566 157.759312,20.9640055 158.703575,20.9918194 C158.746682,20.9941567 158.789308,21 158.83097,21 L174.097158,21 C174.591084,21 175,20.6101372 175,20.1263147 L162.459435,20.1169655 Z" id="Fill-12" fill="#FFFFFF"></path>
                <path d="M34.3978379,29 C40.1534137,29 45.7338954,25.2711374 48.7246986,19.9821512 C48.7246986,19.9821512 44.4756668,20.5303421 43.2730274,21.3750753 C43.1334419,21.4689885 42.8694539,21.7965926 42.8694539,21.7965926 C40.2932441,25.085495 36.6133293,27.2421007 32.878315,27.2421007 C26.8056107,27.2421007 22.8994204,21.5534375 24.1539758,14.529363 C25.3962868,7.50941391 31.3318545,1.81565471 37.4021099,1.81565471 C40.9972938,1.81565471 43.7814125,3.83830667 45.2864872,6.89133418 C45.4990489,7.31770485 45.1429835,7.45869594 45.1429835,7.45869594 L33.8096197,13.8028099 C33.8096197,13.8028099 33.3208255,14.0403836 33.3742109,13.4836993 L33.3742109,13.486126 C33.3742109,13.486126 34.157359,7.53101151 34.4113067,5.54306132 C34.4223266,5.42997724 34.3904913,5.37076583 34.373839,5.35305094 C34.2957201,5.25768175 34.1767051,5.11086658 34.0988311,5.02253481 C34.0478946,4.95895535 33.999407,5.02520418 33.9979377,5.05650857 C33.5652226,7.50092047 32.2558126,14.8380389 32.2558126,14.8380389 C32.2558126,14.8380389 32.2800564,14.9654405 32.3748276,14.9270987 C33.9212881,14.2609703 47.1853398,8.54658421 49.5477634,7.54047563 C50.057128,7.32037421 50.0353331,6.90104097 49.9586835,6.71782534 C48.2332107,2.67834549 44.4352604,0 39.5637262,0 C31.9763967,0 24.6670138,6.49262786 23.2420172,14.5004853 C21.8197143,22.5073721 26.8117329,29 34.3978379,29 Z" id="Fill-14" fill="#FFFFFF"></path>
                <path d="M70.6693035,14.4995494 L70.6729114,14.4995494 L59.4754664,10.5311926 C58.9549682,10.3293167 58.5823935,9.83163657 58.5823935,9.25147702 C58.5823935,8.53369605 59.1507563,7.94325578 59.8757015,7.88157148 L59.8757015,7.8745619 L59.912502,7.8745619 C59.9389599,7.8745619 59.9721524,7.87245903 60.0010156,7.87245903 C60.0320434,7.87245903 72.0973061,7.8745619 72.0973061,7.8745619 C72.5990432,7.8745619 73,7.48973597 73,7 L58.4474584,7 C56.5403282,7 55,8.50332121 55,10.3477753 C55,11.7003905 55.8264472,12.8695884 57.0156075,13.3941387 L67.4212411,17.0722988 L67.4212411,17.0758036 C68.0492544,17.2893621 68.5031268,17.864615 68.5031268,18.5545913 C68.5031268,19.4144331 67.7866,20.1139891 66.8983377,20.1170266 L66.8983377,20.1219333 L55.2458175,20.1219333 C55.5575392,20.6418105 56.1367256,20.9894856 56.7984125,20.9894856 L56.783981,21 L69.5693784,21 C71.465685,21 73,19.5013518 73,17.658066 C73,16.1907273 72.0306804,14.940452 70.6693035,14.4995494" id="Fill-16" fill="#FFFFFF"></path>
            </g>
        </g>
    </g>
</svg>